<mxfile host="app.diagrams.net" modified="2021-10-26T16:20:53.088Z" agent="5.0 (Windows NT 10.0; Win64; x64) AppleWebKit/537.36 (KHTML, like Gecko) Chrome/94.0.4606.81 Safari/537.36" etag="1pg6fTDAxsOBCEuDWRgV" version="15.5.9" type="github">
  <diagram id="gkgLt5CuHR47HQRMRNuF" name="Page-1">
    <mxGraphModel dx="1673" dy="896" grid="1" gridSize="10" guides="1" tooltips="1" connect="1" arrows="1" fold="1" page="1" pageScale="1" pageWidth="827" pageHeight="1169" math="0" shadow="0">
      <root>
        <mxCell id="0" />
        <mxCell id="1" parent="0" />
        <mxCell id="_PyvKO1fwNQI8NXDZq4r-1" value="" style="ellipse;shape=cloud;whiteSpace=wrap;html=1;" vertex="1" parent="1">
          <mxGeometry x="10" y="235" width="170" height="120" as="geometry" />
        </mxCell>
        <mxCell id="_PyvKO1fwNQI8NXDZq4r-2" value="" style="ellipse;shape=cloud;whiteSpace=wrap;html=1;" vertex="1" parent="1">
          <mxGeometry x="840" y="234" width="170" height="120" as="geometry" />
        </mxCell>
        <mxCell id="_PyvKO1fwNQI8NXDZq4r-3" value="&lt;font style=&quot;font-size: 20px&quot;&gt;Internet&lt;/font&gt;" style="ellipse;shape=cloud;whiteSpace=wrap;html=1;fillColor=#1ba1e2;fontColor=#ffffff;strokeColor=#006EAF;" vertex="1" parent="1">
          <mxGeometry x="390" y="245" width="200" height="90" as="geometry" />
        </mxCell>
        <mxCell id="_PyvKO1fwNQI8NXDZq4r-4" value="" style="fontColor=#0066CC;verticalAlign=top;verticalLabelPosition=bottom;labelPosition=center;align=center;html=1;outlineConnect=0;fillColor=#CCCCCC;strokeColor=#6881B3;gradientColor=none;gradientDirection=north;strokeWidth=2;shape=mxgraph.networks.pc;" vertex="1" parent="1">
          <mxGeometry x="900" y="210" width="70" height="50" as="geometry" />
        </mxCell>
        <mxCell id="_PyvKO1fwNQI8NXDZq4r-5" value="" style="fontColor=#0066CC;verticalAlign=top;verticalLabelPosition=bottom;labelPosition=center;align=center;html=1;outlineConnect=0;fillColor=#CCCCCC;strokeColor=#6881B3;gradientColor=none;gradientDirection=north;strokeWidth=2;shape=mxgraph.networks.pc;" vertex="1" parent="1">
          <mxGeometry x="900" y="310" width="70" height="50" as="geometry" />
        </mxCell>
        <mxCell id="_PyvKO1fwNQI8NXDZq4r-6" value="" style="fontColor=#0066CC;verticalAlign=top;verticalLabelPosition=bottom;labelPosition=center;align=center;html=1;outlineConnect=0;fillColor=#CCCCCC;strokeColor=#6881B3;gradientColor=none;gradientDirection=north;strokeWidth=2;shape=mxgraph.networks.pc;" vertex="1" parent="1">
          <mxGeometry x="70" y="310" width="70" height="50" as="geometry" />
        </mxCell>
        <mxCell id="_PyvKO1fwNQI8NXDZq4r-7" value="" style="fontColor=#0066CC;verticalAlign=top;verticalLabelPosition=bottom;labelPosition=center;align=center;html=1;outlineConnect=0;fillColor=#CCCCCC;strokeColor=#6881B3;gradientColor=none;gradientDirection=north;strokeWidth=2;shape=mxgraph.networks.pc;" vertex="1" parent="1">
          <mxGeometry x="70" y="210" width="70" height="50" as="geometry" />
        </mxCell>
        <mxCell id="_PyvKO1fwNQI8NXDZq4r-8" value="" style="sketch=0;outlineConnect=0;dashed=0;verticalLabelPosition=bottom;verticalAlign=top;align=center;html=1;fontSize=12;fontStyle=0;aspect=fixed;pointerEvents=1;shape=mxgraph.aws4.network_firewall_endpoints;fillColor=#60a917;strokeColor=#2D7600;fontColor=#ffffff;" vertex="1" parent="1">
          <mxGeometry x="260" y="255" width="78" height="78" as="geometry" />
        </mxCell>
        <mxCell id="_PyvKO1fwNQI8NXDZq4r-9" value="" style="sketch=0;outlineConnect=0;dashed=0;verticalLabelPosition=bottom;verticalAlign=top;align=center;html=1;fontSize=12;fontStyle=0;aspect=fixed;pointerEvents=1;shape=mxgraph.aws4.network_firewall_endpoints;fillColor=#60a917;strokeColor=#2D7600;fontColor=#ffffff;" vertex="1" parent="1">
          <mxGeometry x="680" y="251" width="78" height="78" as="geometry" />
        </mxCell>
        <mxCell id="_PyvKO1fwNQI8NXDZq4r-10" value="" style="endArrow=none;html=1;rounded=0;exitX=0.875;exitY=0.5;exitDx=0;exitDy=0;exitPerimeter=0;fillColor=#1ba1e2;strokeColor=#006EAF;strokeWidth=3;" edge="1" parent="1" source="_PyvKO1fwNQI8NXDZq4r-1" target="_PyvKO1fwNQI8NXDZq4r-8">
          <mxGeometry width="50" height="50" relative="1" as="geometry">
            <mxPoint x="480" y="380" as="sourcePoint" />
            <mxPoint x="530" y="330" as="targetPoint" />
          </mxGeometry>
        </mxCell>
        <mxCell id="_PyvKO1fwNQI8NXDZq4r-11" value="" style="endArrow=none;html=1;rounded=0;fillColor=#1ba1e2;strokeColor=#006EAF;strokeWidth=3;" edge="1" parent="1">
          <mxGeometry width="50" height="50" relative="1" as="geometry">
            <mxPoint x="340" y="294" as="sourcePoint" />
            <mxPoint x="410" y="294" as="targetPoint" />
          </mxGeometry>
        </mxCell>
        <mxCell id="_PyvKO1fwNQI8NXDZq4r-12" value="" style="endArrow=none;html=1;rounded=0;exitX=0.875;exitY=0.5;exitDx=0;exitDy=0;exitPerimeter=0;fillColor=#1ba1e2;strokeColor=#006EAF;strokeWidth=3;" edge="1" parent="1" target="_PyvKO1fwNQI8NXDZq4r-9">
          <mxGeometry width="50" height="50" relative="1" as="geometry">
            <mxPoint x="570" y="290.22" as="sourcePoint" />
            <mxPoint x="671.3377499999999" y="289.497449197861" as="targetPoint" />
          </mxGeometry>
        </mxCell>
        <mxCell id="_PyvKO1fwNQI8NXDZq4r-13" value="" style="endArrow=none;html=1;rounded=0;exitX=0.875;exitY=0.5;exitDx=0;exitDy=0;exitPerimeter=0;fillColor=#1ba1e2;strokeColor=#006EAF;strokeWidth=3;entryX=0.083;entryY=0.47;entryDx=0;entryDy=0;entryPerimeter=0;" edge="1" parent="1" target="_PyvKO1fwNQI8NXDZq4r-2">
          <mxGeometry width="50" height="50" relative="1" as="geometry">
            <mxPoint x="758" y="290.22" as="sourcePoint" />
            <mxPoint x="859.3377499999999" y="289.497449197861" as="targetPoint" />
          </mxGeometry>
        </mxCell>
        <mxCell id="_PyvKO1fwNQI8NXDZq4r-20" value="PC" style="text;html=1;strokeColor=none;fillColor=none;align=center;verticalAlign=middle;whiteSpace=wrap;rounded=0;fontSize=20;strokeWidth=3;" vertex="1" parent="1">
          <mxGeometry x="70" y="380" width="60" height="30" as="geometry" />
        </mxCell>
        <mxCell id="_PyvKO1fwNQI8NXDZq4r-21" value="PC" style="text;html=1;strokeColor=none;fillColor=none;align=center;verticalAlign=middle;whiteSpace=wrap;rounded=0;fontSize=20;" vertex="1" parent="1">
          <mxGeometry x="910" y="370" width="60" height="30" as="geometry" />
        </mxCell>
        <mxCell id="_PyvKO1fwNQI8NXDZq4r-23" value="NF" style="text;html=1;strokeColor=none;fillColor=none;align=center;verticalAlign=middle;whiteSpace=wrap;rounded=0;fontSize=20;" vertex="1" parent="1">
          <mxGeometry x="269" y="350" width="60" height="30" as="geometry" />
        </mxCell>
        <mxCell id="_PyvKO1fwNQI8NXDZq4r-24" value="NF" style="text;html=1;strokeColor=none;fillColor=none;align=center;verticalAlign=middle;whiteSpace=wrap;rounded=0;fontSize=20;" vertex="1" parent="1">
          <mxGeometry x="689" y="340" width="60" height="30" as="geometry" />
        </mxCell>
        <mxCell id="_PyvKO1fwNQI8NXDZq4r-26" value="" style="shape=flexArrow;endArrow=classic;startArrow=classic;html=1;rounded=0;fontSize=20;strokeWidth=3;" edge="1" parent="1">
          <mxGeometry width="100" height="100" relative="1" as="geometry">
            <mxPoint x="339.5" y="220" as="sourcePoint" />
            <mxPoint x="680.5" y="220" as="targetPoint" />
            <Array as="points">
              <mxPoint x="549.5" y="220" />
              <mxPoint x="610.5" y="220" />
            </Array>
          </mxGeometry>
        </mxCell>
        <mxCell id="_PyvKO1fwNQI8NXDZq4r-27" value="" style="endArrow=none;dashed=1;html=1;dashPattern=1 3;strokeWidth=2;rounded=0;fontSize=20;" edge="1" parent="1">
          <mxGeometry width="50" height="50" relative="1" as="geometry">
            <mxPoint x="340" y="290" as="sourcePoint" />
            <mxPoint x="340" y="220" as="targetPoint" />
          </mxGeometry>
        </mxCell>
        <mxCell id="_PyvKO1fwNQI8NXDZq4r-28" value="" style="endArrow=none;dashed=1;html=1;dashPattern=1 3;strokeWidth=2;rounded=0;fontSize=20;" edge="1" parent="1">
          <mxGeometry width="50" height="50" relative="1" as="geometry">
            <mxPoint x="680" y="290" as="sourcePoint" />
            <mxPoint x="680" y="220" as="targetPoint" />
          </mxGeometry>
        </mxCell>
        <mxCell id="_PyvKO1fwNQI8NXDZq4r-29" value="IPsec Tunnel" style="text;html=1;strokeColor=none;fillColor=none;align=center;verticalAlign=middle;whiteSpace=wrap;rounded=0;fontSize=20;" vertex="1" parent="1">
          <mxGeometry x="430" y="160" width="160" height="30" as="geometry" />
        </mxCell>
        <mxCell id="_PyvKO1fwNQI8NXDZq4r-31" value="" style="sketch=0;outlineConnect=0;dashed=0;verticalLabelPosition=bottom;verticalAlign=top;align=center;html=1;fontSize=12;fontStyle=0;aspect=fixed;pointerEvents=1;shape=mxgraph.aws4.network_firewall_endpoints;fillColor=#60a917;strokeColor=#2D7600;fontColor=#ffffff;" vertex="1" parent="1">
          <mxGeometry x="500" y="619" width="78" height="78" as="geometry" />
        </mxCell>
        <mxCell id="_PyvKO1fwNQI8NXDZq4r-32" value="" style="aspect=fixed;perimeter=ellipsePerimeter;html=1;align=center;shadow=0;dashed=0;spacingTop=3;image;image=img/lib/active_directory/generic_server.svg;fontSize=20;strokeWidth=3;" vertex="1" parent="1">
          <mxGeometry x="810" y="618" width="44.8" height="80" as="geometry" />
        </mxCell>
        <mxCell id="_PyvKO1fwNQI8NXDZq4r-33" value="" style="fontColor=#0066CC;verticalAlign=top;verticalLabelPosition=bottom;labelPosition=center;align=center;html=1;outlineConnect=0;fillColor=#CCCCCC;strokeColor=#6881B3;gradientColor=none;gradientDirection=north;strokeWidth=2;shape=mxgraph.networks.pc;" vertex="1" parent="1">
          <mxGeometry x="210" y="633" width="70" height="50" as="geometry" />
        </mxCell>
        <mxCell id="_PyvKO1fwNQI8NXDZq4r-34" value="NF" style="text;html=1;strokeColor=none;fillColor=none;align=center;verticalAlign=middle;whiteSpace=wrap;rounded=0;fontSize=20;" vertex="1" parent="1">
          <mxGeometry x="509" y="710" width="60" height="30" as="geometry" />
        </mxCell>
        <mxCell id="_PyvKO1fwNQI8NXDZq4r-35" value="PC" style="text;html=1;strokeColor=none;fillColor=none;align=center;verticalAlign=middle;whiteSpace=wrap;rounded=0;fontSize=20;" vertex="1" parent="1">
          <mxGeometry x="210" y="710" width="60" height="30" as="geometry" />
        </mxCell>
        <mxCell id="_PyvKO1fwNQI8NXDZq4r-36" value="freeradius服务器" style="text;html=1;strokeColor=none;fillColor=none;align=center;verticalAlign=middle;whiteSpace=wrap;rounded=0;fontSize=20;" vertex="1" parent="1">
          <mxGeometry x="737.4" y="710" width="190" height="30" as="geometry" />
        </mxCell>
        <mxCell id="_PyvKO1fwNQI8NXDZq4r-37" value="" style="endArrow=none;html=1;rounded=0;fontSize=20;strokeWidth=3;" edge="1" parent="1">
          <mxGeometry width="50" height="50" relative="1" as="geometry">
            <mxPoint x="240" y="1120" as="sourcePoint" />
            <mxPoint x="240" y="750" as="targetPoint" />
          </mxGeometry>
        </mxCell>
        <mxCell id="_PyvKO1fwNQI8NXDZq4r-38" value="" style="endArrow=none;html=1;rounded=0;fontSize=20;strokeWidth=3;" edge="1" parent="1">
          <mxGeometry width="50" height="50" relative="1" as="geometry">
            <mxPoint x="539" y="1120" as="sourcePoint" />
            <mxPoint x="538.58" y="750" as="targetPoint" />
          </mxGeometry>
        </mxCell>
        <mxCell id="_PyvKO1fwNQI8NXDZq4r-39" value="" style="endArrow=none;html=1;rounded=0;fontSize=20;strokeWidth=3;" edge="1" parent="1">
          <mxGeometry width="50" height="50" relative="1" as="geometry">
            <mxPoint x="832" y="1120" as="sourcePoint" />
            <mxPoint x="831.98" y="750" as="targetPoint" />
          </mxGeometry>
        </mxCell>
        <mxCell id="_PyvKO1fwNQI8NXDZq4r-40" value="" style="endArrow=classic;html=1;rounded=0;fontSize=20;strokeWidth=3;" edge="1" parent="1">
          <mxGeometry width="50" height="50" relative="1" as="geometry">
            <mxPoint x="240" y="770" as="sourcePoint" />
            <mxPoint x="540" y="770" as="targetPoint" />
          </mxGeometry>
        </mxCell>
        <mxCell id="_PyvKO1fwNQI8NXDZq4r-41" value="" style="endArrow=classic;html=1;rounded=0;fontSize=20;strokeWidth=3;" edge="1" parent="1">
          <mxGeometry width="50" height="50" relative="1" as="geometry">
            <mxPoint x="540" y="830" as="sourcePoint" />
            <mxPoint x="240" y="830" as="targetPoint" />
          </mxGeometry>
        </mxCell>
        <mxCell id="_PyvKO1fwNQI8NXDZq4r-42" value="" style="endArrow=classic;html=1;rounded=0;fontSize=20;strokeWidth=3;" edge="1" parent="1">
          <mxGeometry width="50" height="50" relative="1" as="geometry">
            <mxPoint x="240" y="890" as="sourcePoint" />
            <mxPoint x="540" y="890" as="targetPoint" />
          </mxGeometry>
        </mxCell>
        <mxCell id="_PyvKO1fwNQI8NXDZq4r-43" value="" style="endArrow=classic;html=1;rounded=0;fontSize=20;strokeWidth=3;" edge="1" parent="1">
          <mxGeometry width="50" height="50" relative="1" as="geometry">
            <mxPoint x="537" y="910" as="sourcePoint" />
            <mxPoint x="827" y="910" as="targetPoint" />
          </mxGeometry>
        </mxCell>
        <mxCell id="_PyvKO1fwNQI8NXDZq4r-44" value="" style="endArrow=classic;html=1;rounded=0;fontSize=20;strokeWidth=3;" edge="1" parent="1">
          <mxGeometry width="50" height="50" relative="1" as="geometry">
            <mxPoint x="827" y="960" as="sourcePoint" />
            <mxPoint x="537" y="960" as="targetPoint" />
          </mxGeometry>
        </mxCell>
        <mxCell id="_PyvKO1fwNQI8NXDZq4r-45" value="" style="endArrow=classic;html=1;rounded=0;fontSize=20;strokeWidth=3;" edge="1" parent="1">
          <mxGeometry width="50" height="50" relative="1" as="geometry">
            <mxPoint x="540" y="980" as="sourcePoint" />
            <mxPoint x="240" y="980" as="targetPoint" />
          </mxGeometry>
        </mxCell>
        <mxCell id="_PyvKO1fwNQI8NXDZq4r-46" value="" style="endArrow=classic;html=1;rounded=0;fontSize=20;strokeWidth=3;" edge="1" parent="1">
          <mxGeometry width="50" height="50" relative="1" as="geometry">
            <mxPoint x="239" y="1030" as="sourcePoint" />
            <mxPoint x="540" y="1030" as="targetPoint" />
          </mxGeometry>
        </mxCell>
        <mxCell id="_PyvKO1fwNQI8NXDZq4r-47" value="" style="endArrow=classic;html=1;rounded=0;fontSize=20;strokeWidth=3;" edge="1" parent="1">
          <mxGeometry width="50" height="50" relative="1" as="geometry">
            <mxPoint x="539" y="1060" as="sourcePoint" />
            <mxPoint x="830" y="1060" as="targetPoint" />
          </mxGeometry>
        </mxCell>
        <mxCell id="_PyvKO1fwNQI8NXDZq4r-48" value="" style="endArrow=classic;html=1;rounded=0;fontSize=20;strokeWidth=3;" edge="1" parent="1">
          <mxGeometry width="50" height="50" relative="1" as="geometry">
            <mxPoint x="830" y="1100" as="sourcePoint" />
            <mxPoint x="540" y="1100" as="targetPoint" />
          </mxGeometry>
        </mxCell>
        <mxCell id="_PyvKO1fwNQI8NXDZq4r-49" value="" style="endArrow=classic;html=1;rounded=0;fontSize=20;strokeWidth=3;" edge="1" parent="1">
          <mxGeometry width="50" height="50" relative="1" as="geometry">
            <mxPoint x="540" y="1110" as="sourcePoint" />
            <mxPoint x="240" y="1110" as="targetPoint" />
          </mxGeometry>
        </mxCell>
        <mxCell id="_PyvKO1fwNQI8NXDZq4r-50" value="EAPoL-Start" style="text;html=1;strokeColor=none;fillColor=none;align=center;verticalAlign=middle;whiteSpace=wrap;rounded=0;fontSize=20;" vertex="1" parent="1">
          <mxGeometry x="290" y="730" width="190" height="30" as="geometry" />
        </mxCell>
        <mxCell id="_PyvKO1fwNQI8NXDZq4r-51" value="EAP-Request/Identity" style="text;html=1;strokeColor=none;fillColor=none;align=center;verticalAlign=middle;whiteSpace=wrap;rounded=0;fontSize=20;" vertex="1" parent="1">
          <mxGeometry x="280" y="790" width="210" height="30" as="geometry" />
        </mxCell>
        <mxCell id="_PyvKO1fwNQI8NXDZq4r-52" value="EAP-Response/Identity" style="text;html=1;strokeColor=none;fillColor=none;align=center;verticalAlign=middle;whiteSpace=wrap;rounded=0;fontSize=20;" vertex="1" parent="1">
          <mxGeometry x="280" y="850" width="210" height="30" as="geometry" />
        </mxCell>
        <mxCell id="_PyvKO1fwNQI8NXDZq4r-53" value="RADIUS Access-Request" style="text;html=1;strokeColor=none;fillColor=none;align=center;verticalAlign=middle;whiteSpace=wrap;rounded=0;fontSize=20;" vertex="1" parent="1">
          <mxGeometry x="560" y="880" width="240" height="30" as="geometry" />
        </mxCell>
        <mxCell id="_PyvKO1fwNQI8NXDZq4r-54" value="RADIUS Access-Challenge" style="text;html=1;strokeColor=none;fillColor=none;align=center;verticalAlign=middle;whiteSpace=wrap;rounded=0;fontSize=20;" vertex="1" parent="1">
          <mxGeometry x="535" y="930" width="290" height="30" as="geometry" />
        </mxCell>
        <mxCell id="_PyvKO1fwNQI8NXDZq4r-55" value="EAP-Request/MD5 Challenge" style="text;html=1;strokeColor=none;fillColor=none;align=center;verticalAlign=middle;whiteSpace=wrap;rounded=0;fontSize=20;" vertex="1" parent="1">
          <mxGeometry x="245" y="950" width="290" height="30" as="geometry" />
        </mxCell>
        <mxCell id="_PyvKO1fwNQI8NXDZq4r-56" value="EAP-Response/MD5 Challenge" style="text;html=1;strokeColor=none;fillColor=none;align=center;verticalAlign=middle;whiteSpace=wrap;rounded=0;fontSize=20;" vertex="1" parent="1">
          <mxGeometry x="240" y="1000" width="290" height="30" as="geometry" />
        </mxCell>
        <mxCell id="_PyvKO1fwNQI8NXDZq4r-57" value="RADIUS Access-Request" style="text;html=1;strokeColor=none;fillColor=none;align=center;verticalAlign=middle;whiteSpace=wrap;rounded=0;fontSize=20;" vertex="1" parent="1">
          <mxGeometry x="569" y="1030" width="240" height="30" as="geometry" />
        </mxCell>
        <mxCell id="_PyvKO1fwNQI8NXDZq4r-58" value="EAP-Success" style="text;html=1;strokeColor=none;fillColor=none;align=center;verticalAlign=middle;whiteSpace=wrap;rounded=0;fontSize=20;" vertex="1" parent="1">
          <mxGeometry x="270" y="1080" width="240" height="30" as="geometry" />
        </mxCell>
        <mxCell id="_PyvKO1fwNQI8NXDZq4r-59" value="RADIUS Access-Accept" style="text;html=1;strokeColor=none;fillColor=none;align=center;verticalAlign=middle;whiteSpace=wrap;rounded=0;fontSize=20;" vertex="1" parent="1">
          <mxGeometry x="569" y="1070" width="240" height="30" as="geometry" />
        </mxCell>
        <mxCell id="_PyvKO1fwNQI8NXDZq4r-60" value="" style="shadow=0;dashed=0;html=1;strokeColor=none;fillColor=#4495D1;labelPosition=center;verticalLabelPosition=bottom;verticalAlign=top;align=center;outlineConnect=0;shape=mxgraph.veeam.2d.web_ui;fontSize=20;" vertex="1" parent="1">
          <mxGeometry x="276.4" y="60" width="44.8" height="44.8" as="geometry" />
        </mxCell>
        <mxCell id="_PyvKO1fwNQI8NXDZq4r-61" value="" style="shadow=0;dashed=0;html=1;strokeColor=none;fillColor=#4495D1;labelPosition=center;verticalLabelPosition=bottom;verticalAlign=top;align=center;outlineConnect=0;shape=mxgraph.veeam.2d.web_ui;fontSize=20;" vertex="1" parent="1">
          <mxGeometry x="696.6" y="60" width="44.8" height="44.8" as="geometry" />
        </mxCell>
        <mxCell id="_PyvKO1fwNQI8NXDZq4r-62" value="" style="endArrow=classic;startArrow=classic;html=1;rounded=0;fontSize=20;strokeWidth=3;" edge="1" parent="1">
          <mxGeometry width="50" height="50" relative="1" as="geometry">
            <mxPoint x="298.58" y="254.8" as="sourcePoint" />
            <mxPoint x="298.58" y="104.8" as="targetPoint" />
          </mxGeometry>
        </mxCell>
        <mxCell id="_PyvKO1fwNQI8NXDZq4r-63" value="" style="endArrow=classic;startArrow=classic;html=1;rounded=0;fontSize=20;strokeWidth=3;" edge="1" parent="1">
          <mxGeometry width="50" height="50" relative="1" as="geometry">
            <mxPoint x="718.5799999999999" y="255" as="sourcePoint" />
            <mxPoint x="718.5799999999999" y="105" as="targetPoint" />
          </mxGeometry>
        </mxCell>
        <mxCell id="_PyvKO1fwNQI8NXDZq4r-64" value="web UI" style="text;html=1;strokeColor=none;fillColor=none;align=center;verticalAlign=middle;whiteSpace=wrap;rounded=0;fontSize=20;" vertex="1" parent="1">
          <mxGeometry x="260.4" y="30" width="77.6" height="30" as="geometry" />
        </mxCell>
        <mxCell id="_PyvKO1fwNQI8NXDZq4r-65" value="web UI" style="text;html=1;strokeColor=none;fillColor=none;align=center;verticalAlign=middle;whiteSpace=wrap;rounded=0;fontSize=20;" vertex="1" parent="1">
          <mxGeometry x="680.4" y="30" width="77.6" height="30" as="geometry" />
        </mxCell>
        <mxCell id="_PyvKO1fwNQI8NXDZq4r-67" value="IPsec vpn打包到NF605设备" style="rounded=0;whiteSpace=wrap;html=1;fontSize=20;strokeWidth=3;" vertex="1" parent="1">
          <mxGeometry x="1390" y="325" width="160" height="85" as="geometry" />
        </mxCell>
        <mxCell id="_PyvKO1fwNQI8NXDZq4r-68" value="添加IPsec vpn主进程启动项" style="rounded=0;whiteSpace=wrap;html=1;fontSize=20;strokeWidth=3;" vertex="1" parent="1">
          <mxGeometry x="1390" y="470" width="160" height="85" as="geometry" />
        </mxCell>
        <mxCell id="_PyvKO1fwNQI8NXDZq4r-69" value="根据web端配置隧道信息" style="rounded=0;whiteSpace=wrap;html=1;fontSize=20;strokeWidth=3;" vertex="1" parent="1">
          <mxGeometry x="1390" y="612" width="160" height="85" as="geometry" />
        </mxCell>
        <mxCell id="_PyvKO1fwNQI8NXDZq4r-70" value="IPsec vpn隧道管理模块" style="rounded=0;whiteSpace=wrap;html=1;fontSize=20;strokeWidth=3;" vertex="1" parent="1">
          <mxGeometry x="1390" y="770" width="160" height="85" as="geometry" />
        </mxCell>
        <mxCell id="_PyvKO1fwNQI8NXDZq4r-71" value="IPsec vpn证书管理模块" style="rounded=0;whiteSpace=wrap;html=1;fontSize=20;strokeWidth=3;" vertex="1" parent="1">
          <mxGeometry x="1161" y="770" width="160" height="85" as="geometry" />
        </mxCell>
        <mxCell id="_PyvKO1fwNQI8NXDZq4r-72" value="IPsec vpn日志管理模块" style="rounded=0;whiteSpace=wrap;html=1;fontSize=20;strokeWidth=3;" vertex="1" parent="1">
          <mxGeometry x="1630" y="770" width="160" height="85" as="geometry" />
        </mxCell>
        <mxCell id="_PyvKO1fwNQI8NXDZq4r-73" value="" style="endArrow=classic;html=1;rounded=0;fontSize=20;strokeWidth=3;exitX=0.5;exitY=1;exitDx=0;exitDy=0;entryX=0.5;entryY=0;entryDx=0;entryDy=0;" edge="1" parent="1" source="_PyvKO1fwNQI8NXDZq4r-67" target="_PyvKO1fwNQI8NXDZq4r-68">
          <mxGeometry width="50" height="50" relative="1" as="geometry">
            <mxPoint x="1240" y="680" as="sourcePoint" />
            <mxPoint x="1290" y="630" as="targetPoint" />
          </mxGeometry>
        </mxCell>
        <mxCell id="_PyvKO1fwNQI8NXDZq4r-74" value="" style="endArrow=classic;html=1;rounded=0;fontSize=20;strokeWidth=3;exitX=0.5;exitY=1;exitDx=0;exitDy=0;entryX=0.5;entryY=0;entryDx=0;entryDy=0;" edge="1" parent="1" source="_PyvKO1fwNQI8NXDZq4r-68" target="_PyvKO1fwNQI8NXDZq4r-69">
          <mxGeometry width="50" height="50" relative="1" as="geometry">
            <mxPoint x="1300" y="610" as="sourcePoint" />
            <mxPoint x="1350" y="560" as="targetPoint" />
          </mxGeometry>
        </mxCell>
        <mxCell id="_PyvKO1fwNQI8NXDZq4r-77" value="" style="endArrow=none;html=1;rounded=0;fontSize=20;strokeWidth=3;" edge="1" parent="1">
          <mxGeometry width="50" height="50" relative="1" as="geometry">
            <mxPoint x="1240" y="730" as="sourcePoint" />
            <mxPoint x="1710" y="730" as="targetPoint" />
          </mxGeometry>
        </mxCell>
        <mxCell id="_PyvKO1fwNQI8NXDZq4r-78" value="" style="endArrow=classic;html=1;rounded=0;fontSize=20;strokeWidth=3;entryX=0.5;entryY=0;entryDx=0;entryDy=0;" edge="1" parent="1" target="_PyvKO1fwNQI8NXDZq4r-71">
          <mxGeometry width="50" height="50" relative="1" as="geometry">
            <mxPoint x="1241" y="730" as="sourcePoint" />
            <mxPoint x="1290" y="630" as="targetPoint" />
          </mxGeometry>
        </mxCell>
        <mxCell id="_PyvKO1fwNQI8NXDZq4r-80" value="" style="endArrow=classic;html=1;rounded=0;fontSize=20;strokeWidth=3;entryX=0.5;entryY=0;entryDx=0;entryDy=0;" edge="1" parent="1">
          <mxGeometry width="50" height="50" relative="1" as="geometry">
            <mxPoint x="1710" y="730" as="sourcePoint" />
            <mxPoint x="1710" y="770" as="targetPoint" />
          </mxGeometry>
        </mxCell>
        <mxCell id="_PyvKO1fwNQI8NXDZq4r-83" value="" style="endArrow=classic;startArrow=classic;html=1;rounded=0;fontSize=20;strokeWidth=3;exitX=0.498;exitY=-0.013;exitDx=0;exitDy=0;exitPerimeter=0;entryX=0.499;entryY=1.013;entryDx=0;entryDy=0;entryPerimeter=0;" edge="1" parent="1" source="_PyvKO1fwNQI8NXDZq4r-70" target="_PyvKO1fwNQI8NXDZq4r-69">
          <mxGeometry width="50" height="50" relative="1" as="geometry">
            <mxPoint x="1480" y="760" as="sourcePoint" />
            <mxPoint x="1470" y="700" as="targetPoint" />
          </mxGeometry>
        </mxCell>
      </root>
    </mxGraphModel>
  </diagram>
</mxfile>
